<?xml version="1.0" standalone="no"?>
<!DOCTYPE svg PUBLIC "-//W3C//DTD SVG 20010904//EN"
 "http://www.w3.org/TR/2001/REC-SVG-20010904/DTD/svg10.dtd">
<svg version="1.0" xmlns="http://www.w3.org/2000/svg"
 width="2113.000000pt" height="1105.000000pt" viewBox="0 0 2113.000000 1105.000000"
 preserveAspectRatio="xMidYMid meet">

<g transform="translate(0.000000,1105.000000) scale(0.100000,-0.100000)"
fill="#000000" stroke="none">
<path d="M12720 9466 l-705 -352 0 -914 0 -915 501 -250 c275 -137 594 -297
710 -353 l209 -104 710 354 710 354 0 901 c0 858 -1 902 -18 921 -17 19 -1386
713 -1404 711 -4 0 -325 -159 -713 -353z m1319 -92 c325 -162 591 -299 591
-303 0 -8 -1182 -601 -1198 -601 -15 -1 -1202 595 -1200 601 4 11 1181 598
1199 598 9 1 282 -132 608 -295z m-669 -1814 c0 -746 -1 -790 -17 -789 -10 0
-286 134 -613 298 l-595 298 -3 784 c-1 431 0 790 3 796 3 9 210 -90 615 -292
l610 -305 0 -790z m1360 599 l0 -790 -602 -299 c-332 -165 -609 -300 -616
-300 -10 0 -12 162 -10 792 l3 793 605 301 c333 166 608 299 613 297 4 -2 7
-360 7 -794z"/>
<path d="M10067 7410 c-29 -49 -72 -50 -267 -3 -56 13 -116 17 -235 17 -149 0
-165 -1 -240 -27 -247 -86 -433 -286 -502 -541 -25 -93 -22 -263 6 -346 65
-188 216 -334 581 -561 406 -251 462 -305 464 -439 3 -251 -327 -372 -624
-228 -144 69 -269 237 -303 403 l-14 70 -70 3 -70 3 -6 -203 c-4 -112 -7 -269
-7 -349 0 -132 2 -147 20 -167 15 -15 33 -22 60 -22 33 0 41 5 60 35 35 56 40
56 285 1 266 -60 471 -55 675 16 225 79 386 233 451 429 20 62 24 94 24 199 0
152 -23 235 -96 344 -87 132 -215 239 -497 417 -373 234 -458 303 -504 405
-25 58 -21 140 10 200 58 113 209 172 368 145 186 -33 340 -177 406 -383 l22
-68 51 0 c41 0 56 5 73 23 22 23 22 29 22 318 l0 296 -23 21 c-16 15 -36 22
-63 22 -33 0 -42 -5 -57 -30z"/>
<path d="M6022 7387 c-47 -50 -12 -100 77 -111 104 -13 157 -51 180 -126 8
-26 11 -296 11 -927 0 -979 1 -955 -61 -1007 -28 -24 -104 -46 -158 -46 -32 0
-71 -36 -71 -66 0 -11 10 -30 23 -42 l23 -22 560 0 561 0 22 24 c17 18 22 33
19 62 l-3 39 -82 6 c-107 8 -150 30 -183 95 l-25 48 -3 400 -3 399 68 -6 c113
-10 159 -31 239 -111 79 -79 138 -174 309 -491 59 -110 141 -260 182 -332 l74
-133 398 0 398 0 21 23 c15 16 22 36 22 65 0 37 -3 42 -23 42 -60 0 -126 31
-179 84 -65 63 -96 110 -308 456 -177 289 -245 387 -329 469 -31 30 -51 56
-46 58 6 2 42 21 81 43 142 78 245 199 286 334 25 84 29 223 9 306 -65 260
-302 435 -651 480 -42 5 -373 10 -746 10 l-671 0 -21 -23z m1163 -212 c135
-36 235 -116 276 -224 26 -68 36 -203 20 -285 -41 -217 -185 -323 -468 -342
l-103 -7 0 443 0 443 108 -7 c60 -3 135 -13 167 -21z"/>
<path d="M11550 6413 c-126 -20 -253 -128 -327 -278 -63 -126 -99 -324 -88
-486 16 -261 128 -485 281 -562 114 -58 265 -56 389 3 76 36 95 57 102 112 l6
43 -24 -18 c-59 -43 -134 -70 -206 -75 -64 -4 -79 -1 -127 22 -147 72 -253
280 -275 539 -32 382 130 669 349 617 64 -15 139 -81 174 -152 21 -42 26 -66
26 -129 0 -62 3 -78 16 -83 9 -4 18 -5 20 -3 2 1 6 98 10 215 l7 213 -39 -3
c-21 -1 -72 -1 -111 0 -57 2 -73 5 -73 17 0 15 -46 18 -110 8z"/>
<path d="M12010 6381 c0 -22 13 -41 29 -41 9 0 33 -5 54 -11 l37 -10 0 -589 0
-589 -37 -10 c-21 -6 -46 -11 -55 -11 -16 0 -35 -36 -24 -47 3 -3 85 -5 183
-5 l178 1 3 24 c3 22 -1 25 -42 31 -30 5 -50 14 -56 26 -6 11 -10 124 -10 279
l0 260 33 6 c40 6 334 35 365 35 l22 0 0 -295 0 -294 -37 -10 c-21 -6 -46 -11
-55 -11 -13 0 -18 -8 -18 -27 l0 -28 332 1 333 2 0 22 c0 18 -8 26 -40 34 -34
10 -40 16 -43 42 -3 31 53 440 64 469 7 18 48 26 154 28 l84 2 52 -260 c29
-143 50 -263 48 -267 -2 -3 -27 -9 -55 -13 -46 -6 -50 -9 -47 -32 l3 -25 179
0 c98 1 180 3 183 6 3 2 2 13 -1 24 -5 13 -22 24 -51 31 -50 13 -50 12 -99
221 -61 257 -196 925 -196 966 0 8 15 16 40 20 34 6 40 10 40 30 l0 24 -165 0
-165 0 0 -24 c0 -19 7 -25 35 -30 19 -4 36 -10 39 -14 5 -9 -206 -1001 -245
-1144 -8 -32 -15 -39 -52 -50 -23 -6 -45 -17 -49 -23 -6 -7 -10 -6 -15 1 -5 6
-27 15 -51 19 -25 4 -46 14 -52 25 -6 12 -10 234 -10 593 l0 575 53 12 c51 13
67 23 67 48 0 9 -44 12 -185 12 l-185 0 0 -25 c0 -17 6 -25 18 -25 9 0 34 -5
55 -11 l37 -10 0 -254 0 -255 -210 0 -210 0 0 249 c0 192 3 251 13 259 7 6 32
14 55 18 36 6 42 10 42 30 l0 24 -185 0 c-106 0 -185 -4 -185 -9z m1390 -380
c23 -123 43 -231 44 -240 1 -14 -11 -15 -94 -12 -52 1 -97 5 -99 7 -2 2 16 97
39 211 24 114 45 223 48 241 2 19 8 30 12 25 4 -4 27 -109 50 -232z"/>
<path d="M13850 6381 c0 -22 13 -41 29 -41 9 0 33 -5 54 -11 l37 -10 0 -589 0
-589 -37 -10 c-21 -5 -47 -11 -58 -13 -13 -2 -20 -11 -20 -27 l0 -23 183 0
c101 0 186 2 189 5 10 11 -9 47 -25 47 -9 0 -34 5 -54 11 l-38 10 0 588 0 589
53 12 c51 13 67 23 67 48 0 9 -45 12 -190 12 -109 0 -190 -4 -190 -9z"/>
<path d="M14330 6378 c0 -25 16 -35 65 -44 l50 -9 3 -170 c5 -281 -17 -998
-31 -1012 -7 -6 -28 -16 -47 -20 -27 -7 -35 -14 -35 -32 l0 -23 155 0 c155 0
155 0 155 23 0 19 -8 24 -53 34 -29 7 -56 15 -59 19 -11 10 -24 488 -21 768
l3 261 109 -234 c185 -396 468 -961 476 -952 5 4 13 269 19 588 6 319 14 617
17 662 l7 82 41 14 c29 10 42 20 44 35 3 22 2 22 -147 22 l-151 0 0 -24 c0
-20 6 -25 43 -30 23 -4 48 -10 55 -15 15 -9 35 -518 30 -771 l-3 -145 -87 172
c-71 140 -253 531 -356 766 l-21 47 -130 0 c-98 0 -131 -3 -131 -12z"/>
<path d="M6554 4449 c-40 -31 -69 -83 -57 -102 3 -5 1 -7 -4 -4 -6 4 -15 -18
-23 -56 -7 -34 -18 -75 -25 -92 -22 -52 -46 -155 -40 -166 4 -5 2 -16 -4 -23
-10 -12 -28 -108 -37 -199 -2 -21 -6 -42 -9 -47 -7 -11 -33 -160 -32 -182 0
-10 4 -18 9 -18 17 0 98 74 98 90 0 9 7 25 15 37 9 14 11 23 4 25 -6 2 1 19
15 41 14 20 24 37 21 37 -2 0 9 15 26 32 16 18 29 37 29 43 1 20 38 55 62 57
18 2 24 -3 26 -22 2 -14 9 -28 15 -32 7 -4 13 -35 14 -70 4 -167 28 -241 69
-220 11 5 30 15 44 21 14 6 45 27 70 46 25 19 59 42 77 51 32 16 50 45 38 64
-8 13 -33 0 -103 -52 -29 -22 -57 -38 -63 -36 -6 2 -12 34 -14 72 -2 43 -10
75 -19 85 -17 19 -21 41 -7 41 8 0 -12 131 -23 149 -12 18 -47 18 -70 0 -13
-10 -29 -19 -34 -19 -16 0 -131 -111 -154 -148 -15 -24 -23 -30 -33 -22 -10 8
-9 27 2 98 21 136 44 234 64 274 11 21 19 43 19 49 0 7 10 38 21 70 23 63 35
70 83 48 21 -10 29 -8 55 12 52 41 33 84 -41 93 -40 5 -51 2 -84 -25z"/>
<path d="M1739 4432 c-1 -4 -1 -10 0 -14 0 -4 -5 -5 -12 -2 -19 7 -62 -55 -48
-69 8 -8 11 -8 11 2 0 7 5 9 13 4 6 -4 39 -10 72 -13 l60 -5 -1 -50 c-1 -27
-3 -66 -6 -85 -2 -19 0 -45 4 -57 4 -13 4 -23 0 -23 -19 0 -49 -105 -33 -115
9 -5 8 -26 -9 -125 -6 -38 -11 -73 -10 -76 1 -4 -2 -10 -7 -13 -21 -14 -43
-57 -43 -84 0 -15 -7 -41 -15 -56 -8 -16 -11 -31 -8 -35 3 -3 -2 -15 -12 -26
-22 -24 -7 -47 22 -35 10 4 26 9 36 10 11 1 22 6 25 11 12 16 75 42 182 75 97
29 238 91 250 108 3 4 31 19 62 34 31 14 63 35 70 46 7 12 18 21 25 21 6 0 21
12 32 26 24 30 28 53 7 35 -11 -9 -12 -7 -9 13 4 19 0 25 -21 30 -15 4 -35 15
-46 26 -11 11 -29 20 -40 20 -12 0 -31 6 -43 14 -12 7 -62 24 -112 36 -49 12
-94 26 -98 30 -4 4 10 19 33 35 22 15 40 32 40 36 0 5 6 9 13 9 7 0 20 8 28
18 9 9 30 29 47 45 49 42 37 74 -30 83 -42 6 -122 34 -158 55 -39 23 -68 30
-102 26 -21 -3 -38 -1 -38 4 0 6 -6 9 -12 8 -7 -1 -20 1 -28 4 -33 13 -90 25
-91 19z m281 -150 c19 -5 52 -20 74 -32 l38 -23 -23 -18 c-13 -10 -26 -17 -29
-17 -16 2 -128 -57 -123 -65 3 -6 1 -7 -5 -3 -6 3 -22 1 -36 -5 -14 -7 -29 -9
-32 -6 -8 8 20 108 42 153 16 33 23 34 94 16z m50 -295 c14 -4 41 -8 61 -10
20 -3 42 -8 49 -12 6 -4 22 -8 35 -9 13 -2 38 -15 55 -30 17 -14 35 -26 40
-26 4 0 10 -7 14 -15 3 -10 -8 -25 -34 -44 -22 -15 -37 -31 -35 -35 3 -3 2 -4
-1 -2 -8 6 -117 -42 -125 -55 -3 -6 -9 -10 -13 -9 -4 1 -19 -2 -34 -8 -133
-48 -257 -78 -266 -64 -6 10 14 93 25 107 5 5 9 21 9 36 0 15 4 31 10 34 6 3
7 30 3 66 -8 79 4 88 107 84 41 -1 86 -5 100 -8z"/>
<path d="M4863 4408 c-18 -13 -33 -29 -33 -35 0 -7 -6 -13 -14 -13 -8 0 -27
-7 -43 -15 -15 -8 -53 -21 -83 -29 -58 -16 -92 -48 -71 -69 8 -8 20 -6 42 7
17 10 33 15 36 12 3 -3 18 1 34 9 38 20 59 19 59 -4 0 -11 6 -21 13 -24 9 -3
9 -11 1 -34 -7 -19 -8 -36 -2 -47 6 -10 5 -36 -1 -69 -6 -28 -12 -74 -13 -102
-1 -27 -8 -63 -15 -78 -8 -16 -12 -40 -8 -56 4 -18 -4 -51 -25 -100 -16 -41
-30 -83 -30 -95 0 -12 -5 -27 -12 -34 -7 -7 -8 -12 -2 -12 5 0 3 -4 -3 -8 -10
-7 -10 -12 0 -25 11 -16 14 -16 44 3 20 12 42 39 57 72 26 55 58 173 49 182
-3 2 -2 10 2 16 10 16 45 -17 45 -42 0 -10 4 -18 9 -18 5 0 11 -10 15 -23 3
-13 27 -45 54 -73 49 -50 126 -87 202 -98 19 -2 61 -10 93 -16 50 -10 62 -9
83 4 21 15 23 21 18 64 -6 41 -34 96 -34 65 0 -6 -9 -13 -21 -16 -13 -4 -19
-12 -18 -24 6 -34 -7 -41 -68 -32 -83 12 -173 61 -173 94 0 7 -9 20 -20 30
-11 10 -20 26 -20 36 0 10 -5 29 -11 42 -10 23 -4 32 95 129 58 58 106 112
106 121 0 10 4 17 9 17 11 0 22 43 13 52 -4 3 -29 -2 -57 -12 -27 -10 -80 -28
-117 -40 -41 -13 -77 -33 -95 -51 -15 -17 -38 -34 -51 -39 -13 -6 -21 -14 -18
-19 6 -10 -19 -9 -29 0 -9 10 15 179 34 234 5 17 17 60 26 97 23 92 10 109
-52 66z m237 -339 c0 -4 -10 -23 -22 -42 -21 -32 -58 -61 -100 -79 -10 -4 -18
-12 -18 -18 0 -5 -9 -10 -19 -10 -11 0 -23 -4 -26 -10 -3 -5 -17 -10 -31 -10
-39 0 -30 33 18 65 23 15 52 40 65 56 13 15 43 34 66 42 24 8 41 20 39 27 -3
11 0 11 12 0 9 -7 16 -16 16 -21z m-56 -117 c3 -5 -1 -9 -9 -9 -8 0 -12 4 -9
9 3 4 7 8 9 8 2 0 6 -4 9 -8z"/>
<path d="M12335 4403 c-11 -2 -27 -7 -35 -10 -8 -3 -21 -7 -28 -9 -17 -3 -79
-56 -87 -73 -9 -22 21 -49 37 -33 7 7 20 12 29 12 14 0 16 -11 13 -85 -2 -47
-7 -93 -12 -103 -5 -9 -12 -30 -16 -45 l-7 -28 -33 36 c-41 43 -79 46 -134 11
-45 -28 -63 -49 -90 -99 -11 -21 -29 -46 -40 -56 -44 -37 -61 -292 -25 -348
l15 -23 29 21 c16 11 29 26 29 34 0 7 7 15 15 19 8 3 15 11 15 19 0 7 20 30
45 51 25 20 43 41 41 45 -3 3 4 7 15 7 10 0 19 -6 19 -13 0 -7 3 -13 8 -13 4
0 9 -27 10 -60 2 -33 10 -77 19 -98 9 -20 17 -52 19 -70 3 -32 27 -74 69 -122
13 -14 29 -38 36 -55 8 -16 21 -30 29 -31 8 0 23 -4 32 -8 28 -12 64 22 64 60
0 34 -5 34 -39 6 -16 -14 -20 -14 -45 4 -65 48 -109 139 -118 244 -1 19 -5 54
-8 77 -3 23 -2 45 4 48 6 3 10 23 10 44 0 21 3 41 7 45 12 12 32 80 26 89 -3
6 -1 7 4 4 6 -4 17 1 24 11 13 15 12 16 -3 3 -27 -20 -34 9 -12 54 16 35 16
39 0 68 -11 20 -12 25 -3 14 18 -22 21 -18 37 53 20 91 32 131 63 213 26 66
28 80 16 88 -8 5 -16 8 -19 8 -3 -1 -14 -3 -25 -6z m-206 -409 c5 4 13 1 17
-5 5 -8 9 -7 15 2 5 9 10 4 14 -17 3 -16 9 -40 12 -54 9 -40 10 -59 2 -54 -4
2 -10 -4 -13 -14 -4 -10 -36 -40 -72 -66 -36 -27 -63 -54 -61 -60 3 -7 -11
-12 -34 -14 l-39 -2 5 42 c10 110 50 209 99 250 19 16 22 16 33 2 6 -9 16 -13
22 -10z"/>
<path d="M2920 4364 c-25 -14 -58 -38 -75 -54 -16 -16 -47 -45 -69 -64 -36
-32 -42 -56 -12 -56 29 0 51 -41 49 -92 -1 -28 -6 -55 -12 -62 -16 -20 -81
-227 -81 -260 0 -17 -7 -41 -15 -53 -17 -24 -13 -62 11 -100 8 -13 11 -23 7
-23 -5 0 -2 -4 6 -9 10 -7 25 -2 47 15 17 14 56 37 86 53 116 61 138 75 144
94 8 26 -3 34 -29 17 -90 -57 -186 -89 -164 -54 3 5 1 32 -4 60 -7 38 -6 62 7
100 8 27 19 63 24 79 4 17 18 66 30 110 12 44 24 94 27 110 3 17 8 35 13 40 4
6 10 23 14 39 4 17 17 43 29 60 22 31 34 76 20 76 -4 0 -28 -12 -53 -26z"/>
<path d="M8346 4383 c-21 -6 -65 -52 -66 -69 0 -16 34 -44 53 -44 17 0 67 76
67 103 0 17 -16 20 -54 10z"/>
<path d="M16848 4384 c-4 -3 -14 -7 -24 -8 -29 -4 -61 -53 -48 -73 22 -36 43
-39 66 -12 49 54 62 99 30 99 -10 0 -21 -3 -24 -6z"/>
<path d="M17444 4284 c-50 -33 -73 -63 -74 -92 0 -27 -27 -81 -50 -99 -8 -7
-35 -15 -60 -18 -66 -10 -79 -14 -90 -34 -12 -24 11 -58 31 -45 23 15 103 13
120 -2 15 -13 15 -18 -2 -52 -10 -20 -19 -53 -20 -72 -2 -19 -5 -39 -8 -45 -3
-5 -6 -12 -6 -15 -1 -3 -14 -31 -29 -62 l-29 -58 19 -77 20 -78 35 1 c21 1 62
16 103 40 37 21 77 44 89 51 41 23 67 46 61 55 -3 4 0 7 7 6 14 -3 44 50 34
60 -6 7 -6 7 -88 -55 -31 -24 -61 -43 -67 -43 -6 0 -24 -7 -39 -15 -28 -14
-29 -14 -37 13 -10 36 -11 202 -2 202 5 0 8 13 8 28 0 15 5 33 12 40 9 9 8 15
-8 27 -14 11 -15 14 -3 9 10 -3 20 -1 24 5 3 6 0 11 -7 11 -7 0 -4 8 9 21 17
17 39 23 103 29 45 4 86 12 93 19 6 6 19 11 28 11 22 0 34 19 21 32 -5 5 -53
9 -106 9 -73 -1 -96 2 -96 12 0 7 11 42 25 77 14 35 23 66 20 68 -2 3 0 14 6
24 19 35 -4 41 -47 12z"/>
<path d="M13268 4141 c-26 -10 -55 -24 -65 -33 -10 -8 -32 -23 -50 -33 -18
-10 -30 -22 -27 -27 3 -4 1 -8 -4 -8 -5 0 -15 -13 -21 -28 -13 -31 -1 -82 19
-82 6 0 8 -5 4 -11 -6 -11 49 -69 65 -69 13 0 42 -96 35 -116 -4 -10 -24 -36
-44 -56 -21 -20 -35 -40 -31 -44 3 -4 1 -4 -6 -1 -27 16 -97 -32 -86 -59 8
-21 99 19 171 75 69 55 112 107 112 136 0 21 -37 92 -52 102 -7 4 -13 15 -13
23 0 8 -5 14 -12 13 -7 -2 -24 18 -39 42 -35 60 -28 85 30 108 25 11 57 28 71
39 22 17 23 21 11 34 -8 8 -16 13 -18 13 -2 -1 -24 -9 -50 -18z"/>
<path d="M10405 4132 c-33 -2 -64 -7 -69 -13 -6 -5 -20 -9 -31 -9 -12 0 -30
-9 -40 -20 -10 -11 -22 -20 -27 -20 -12 0 -30 -18 -50 -50 -19 -28 -58 -141
-58 -165 0 -9 -7 -18 -15 -21 -8 -4 -15 -18 -15 -34 0 -15 -9 -53 -20 -85 -23
-67 -19 -155 7 -155 31 0 113 66 113 91 0 5 16 24 35 43 19 20 35 42 35 50 0
7 7 16 15 20 8 3 15 11 15 19 0 7 11 24 25 37 25 24 35 47 13 34 -7 -5 -8 -3
-4 5 5 7 11 10 14 7 3 -3 11 -1 18 5 10 8 15 4 20 -18 4 -15 9 -32 12 -38 3
-5 7 -25 9 -45 4 -40 41 -124 69 -158 18 -22 21 -22 47 -9 15 8 40 32 57 55
16 22 37 43 47 47 10 4 38 29 62 56 33 37 41 53 33 61 -14 14 -45 -8 -35 -25
3 -5 2 -7 -4 -4 -5 4 -34 -14 -62 -38 -29 -25 -56 -45 -61 -45 -30 0 -58 103
-66 242 l-7 118 27 21 c15 12 24 25 19 29 -12 11 -61 16 -128 12z m-39 -82
c30 0 7 -99 -40 -167 -16 -24 -25 -47 -20 -54 4 -7 3 -9 -4 -5 -6 4 -38 -28
-76 -74 -59 -73 -66 -79 -71 -58 -5 20 3 59 31 157 4 13 22 55 41 93 18 38 33
71 33 75 0 4 8 15 17 26 13 13 25 17 47 13 15 -3 35 -6 42 -6z"/>
<path d="M7448 4115 c-40 -15 -118 -72 -118 -87 0 -5 -6 -16 -14 -24 -15 -15
-51 -121 -47 -141 1 -6 -6 -17 -16 -25 -10 -7 -19 -27 -20 -43 -1 -17 -11 -56
-21 -88 -16 -46 -18 -66 -10 -102 5 -25 15 -45 22 -45 16 0 66 23 66 31 0 3
11 19 25 35 14 16 25 34 25 40 0 6 11 17 25 24 20 11 48 55 34 55 -2 0 8 12
21 26 36 37 60 68 60 77 0 11 38 33 44 24 2 -4 8 -36 12 -71 4 -35 17 -84 30
-110 29 -59 73 -110 80 -93 3 6 12 12 19 12 8 0 24 15 36 33 13 17 29 36 37
40 38 24 82 71 78 84 -3 8 -2 12 2 9 14 -8 45 23 38 39 -8 22 -16 18 -78 -41
-78 -75 -91 -76 -117 -12 -20 52 -41 189 -41 276 0 36 4 44 25 52 14 5 25 16
25 24 0 13 -17 15 -92 15 -51 -1 -110 -7 -130 -14z m35 -61 c31 -6 37 -11 37
-31 0 -13 -5 -33 -11 -44 -6 -11 -12 -30 -14 -41 -3 -12 -14 -32 -26 -44 -19
-21 -20 -26 -8 -41 13 -16 12 -17 -3 -4 -10 7 -18 9 -18 4 0 -5 -25 -38 -55
-73 -32 -39 -53 -71 -49 -80 3 -8 2 -11 -2 -8 -3 4 -14 0 -23 -9 -15 -16 -16
-15 -19 5 -6 39 29 171 64 243 19 38 34 72 34 75 0 12 33 54 44 54 6 0 28 -3
49 -6z"/>
<path d="M18057 4107 c-51 -30 -147 -96 -174 -121 -17 -14 -20 -22 -12 -33 9
-10 16 -10 40 4 16 10 29 21 29 25 0 10 30 11 31 1 3 -30 1 -101 -4 -113 -12
-33 -19 -89 -21 -165 l-1 -80 29 -3 c20 -3 43 6 75 29 58 41 123 108 115 120
-3 5 1 6 9 3 12 -4 57 37 69 63 1 4 17 18 34 30 l31 21 11 -32 c14 -37 16
-152 4 -160 -5 -3 -8 -15 -7 -28 1 -13 -1 -27 -5 -33 -4 -5 -13 -37 -20 -70
-7 -33 -19 -67 -25 -75 -7 -8 -29 -64 -49 -123 -20 -60 -45 -126 -56 -147 -11
-22 -20 -46 -20 -54 0 -8 -4 -16 -10 -18 -5 -1 -11 -13 -13 -26 -2 -13 -9 -27
-17 -32 -7 -4 -9 -13 -5 -20 5 -9 4 -11 -3 -6 -17 10 -39 -41 -24 -56 19 -19
37 6 96 125 69 140 80 168 77 189 -1 10 5 30 13 45 8 16 29 69 47 118 17 50
35 95 39 100 5 6 10 26 11 45 2 19 7 38 12 41 5 3 10 12 11 20 2 8 6 21 9 29
6 15 16 76 20 118 1 12 4 22 7 22 3 0 11 9 18 21 10 15 10 24 2 34 -8 9 -6 14
6 19 10 4 15 16 13 33 -2 16 1 35 6 43 5 8 10 29 11 47 1 28 -2 31 -17 22 -10
-5 -28 -9 -41 -9 -38 -1 -69 -32 -73 -73 -3 -27 -12 -44 -36 -65 -19 -15 -57
-49 -86 -77 -28 -27 -72 -67 -96 -87 l-44 -36 -9 26 c-11 31 5 160 35 279 22
89 13 103 -42 70z"/>
<path d="M4204 4110 c-60 -9 -97 -27 -88 -42 4 -7 3 -8 -4 -4 -17 10 -61 -33
-87 -85 -33 -64 -57 -171 -42 -181 9 -6 9 -8 0 -8 -16 0 -18 -116 -2 -157 13
-35 48 -73 66 -73 8 0 12 4 9 8 -3 5 1 9 9 9 8 0 12 -4 9 -8 -6 -10 91 18 126
36 52 26 101 45 118 45 17 0 72 48 72 63 0 13 -48 7 -92 -11 -24 -11 -61 -22
-83 -26 -22 -4 -44 -11 -50 -15 -24 -17 -51 -5 -69 33 -37 77 -20 236 33 305
15 20 20 21 31 9 18 -18 61 -11 78 14 7 10 19 18 26 18 7 0 21 9 32 21 19 21
18 21 -5 40 -13 10 -26 18 -30 18 -3 -1 -29 -5 -57 -9z"/>
<path d="M5889 4116 c-2 -3 -24 -7 -48 -10 -118 -14 -192 -122 -213 -307 -13
-123 -7 -169 31 -211 l28 -32 54 12 c30 7 72 21 94 31 99 44 117 51 130 51 17
0 75 48 75 62 0 15 -48 8 -97 -14 -26 -12 -53 -20 -59 -20 -6 1 -32 -4 -57
-12 -43 -13 -49 -12 -69 3 -23 19 -28 43 -31 141 -2 73 22 154 55 190 18 19
23 20 32 9 13 -17 51 -13 74 7 9 8 31 26 47 39 l30 25 -24 20 c-22 19 -43 25
-52 16z"/>
<path d="M14560 4113 c-14 -2 -39 -6 -56 -8 -33 -6 -134 -80 -134 -99 0 -6 -7
-24 -16 -41 -26 -50 -52 -190 -49 -266 2 -68 4 -73 41 -109 l39 -38 65 23 c36
12 90 32 120 44 30 13 64 25 75 29 30 8 75 44 75 59 0 22 -10 20 -223 -47 -40
-12 -55 -4 -67 38 -33 111 -17 240 36 297 22 24 28 26 38 14 16 -20 64 -12 71
12 4 10 13 19 21 19 8 0 24 10 35 21 l22 22 -24 18 c-13 10 -28 18 -34 17 -5
0 -21 -2 -35 -5z"/>
<path d="M3575 4103 c-11 -2 -31 -8 -45 -13 -14 -4 -37 -11 -52 -14 -28 -6
-98 -61 -98 -76 0 -5 -14 -32 -32 -60 -30 -48 -31 -55 -30 -143 3 -156 6 -175
30 -199 l22 -22 23 22 c13 12 29 22 35 22 13 0 163 149 200 198 12 17 25 45
29 64 3 18 16 45 29 60 27 33 40 99 24 127 -11 22 -35 28 -45 11 -9 -15 -25
-12 -25 4 0 8 -7 17 -16 20 -16 6 -17 6 -49 -1z m55 -63 c6 -11 8 -20 6 -20
-3 0 -10 9 -16 20 -6 11 -8 20 -6 20 3 0 10 -9 16 -20z m-42 -48 c2 -12 -2
-22 -9 -22 -8 0 -6 -6 5 -19 16 -17 16 -21 -3 -70 -12 -28 -18 -51 -15 -51 3
0 -2 -7 -10 -16 -9 -8 -30 -35 -46 -60 -50 -71 -90 -80 -95 -22 -15 166 -15
183 10 224 13 21 25 35 25 31 0 -4 10 -2 23 4 23 13 85 28 102 25 6 -2 11 -12
13 -24z"/>
<path d="M15177 4092 c-15 -10 -25 -20 -23 -23 2 -2 -15 -5 -37 -6 -23 -2 -43
-7 -45 -13 -2 -5 -11 -10 -19 -10 -23 0 -84 -40 -78 -51 8 -12 88 -6 103 9 17
16 27 15 42 -3 7 -8 8 -15 3 -15 -6 0 -16 -35 -22 -77 -7 -43 -23 -103 -36
-133 -25 -58 -25 -134 -1 -155 7 -5 15 -17 18 -26 8 -20 57 -14 65 7 3 8 10
14 17 14 12 0 36 22 110 98 35 37 38 43 25 59 -12 16 -12 17 1 6 13 -10 25 -2
74 52 31 36 63 65 69 65 34 0 43 -139 14 -210 -25 -62 -1 -77 62 -39 28 17 32
23 20 31 -11 8 -10 8 5 4 11 -4 26 0 37 10 24 22 24 34 0 34 -18 0 -20 9 -23
91 -2 50 0 93 5 96 4 2 7 17 7 33 0 16 5 32 10 35 6 3 10 16 10 29 0 12 5 27
12 34 18 18 -2 31 -36 25 -15 -3 -42 -21 -60 -40 -17 -19 -64 -67 -105 -108
-48 -48 -71 -77 -66 -86 5 -8 4 -10 -4 -5 -18 11 -75 -49 -67 -70 5 -14 4 -15
-9 -4 -12 10 -15 10 -15 -4 0 -10 -4 -15 -9 -12 -4 3 -16 -3 -26 -14 -10 -11
-21 -20 -26 -20 -4 0 -10 43 -14 96 -7 91 -6 98 20 151 14 30 28 65 29 78 1
13 10 30 19 40 41 41 -2 62 -56 27z"/>
<path d="M8844 4084 c-12 -8 -41 -33 -65 -56 -24 -22 -59 -47 -77 -55 -29 -12
-36 -33 -11 -33 6 0 7 5 3 12 -5 7 -3 8 5 4 7 -5 20 -1 31 9 47 43 83 -26 55
-106 -8 -23 -15 -54 -15 -69 0 -16 -9 -56 -20 -91 -10 -34 -16 -67 -13 -72 3
-6 1 -7 -5 -3 -7 4 -12 1 -12 -8 0 -8 7 -13 18 -11 9 2 21 4 25 4 14 2 65 60
72 82 15 45 205 278 205 252 0 -4 4 -2 8 4 4 7 19 14 32 15 24 3 25 0 24 -46
-2 -49 -17 -134 -34 -188 -10 -34 2 -93 25 -118 16 -18 18 -18 36 -1 11 10 37
27 57 37 20 11 39 22 40 27 2 4 22 17 45 28 43 23 76 55 77 77 0 21 -76 -8
-130 -50 -24 -19 -24 -19 -32 3 -18 49 -11 153 18 269 16 63 16 61 6 78 -6 9
-18 7 -53 -9 -24 -12 -46 -25 -49 -28 -3 -4 -23 -20 -45 -36 -37 -26 -67 -53
-135 -117 -14 -13 -42 -44 -62 -68 -21 -24 -40 -41 -43 -38 -9 9 26 152 50
198 12 25 21 50 18 56 -2 6 3 17 12 24 41 34 -15 56 -61 24z"/>
<path d="M11125 4090 c-5 -5 -21 -19 -35 -32 -13 -13 -46 -37 -72 -54 -26 -17
-45 -34 -41 -38 4 -4 0 -4 -10 0 -12 4 -17 1 -17 -11 0 -12 5 -15 22 -9 13 4
28 13 34 21 5 8 21 13 35 11 22 -3 24 -8 27 -57 2 -30 -2 -59 -7 -64 -6 -6
-11 -27 -11 -47 0 -19 -11 -70 -25 -113 -14 -43 -25 -82 -25 -87 0 -34 82 26
110 80 37 73 181 250 203 250 5 0 15 7 24 15 8 9 23 15 32 13 21 -4 18 -71
-11 -196 -18 -80 -19 -96 -8 -120 8 -15 12 -31 11 -36 -1 -5 4 -13 11 -17 7
-5 31 5 60 27 26 19 52 34 57 34 6 0 16 9 23 19 8 11 26 23 41 26 30 8 81 65
68 78 -10 10 -66 -14 -110 -47 -41 -30 -49 -25 -54 30 -2 23 -7 46 -11 52 -3
6 -2 13 3 17 5 3 8 14 6 23 -2 10 3 46 11 81 8 34 12 66 9 71 -3 5 -1 11 5 15
11 7 14 48 4 57 -5 5 -52 -13 -80 -30 -40 -25 -114 -85 -114 -93 0 -5 -4 -8
-8 -6 -5 1 -21 -9 -37 -23 -26 -23 -41 -39 -118 -124 l-28 -31 6 60 c4 35 19
86 36 121 16 34 29 69 29 77 0 9 5 19 10 22 6 3 10 15 10 26 0 14 -7 19 -27
19 -16 -1 -32 -5 -38 -10z"/>
<path d="M13824 4084 c-18 -8 -55 -36 -84 -62 -46 -41 -53 -53 -56 -92 -2 -24
-10 -48 -18 -52 -22 -13 -50 -106 -37 -122 9 -10 8 -15 -2 -19 -11 -4 -13 -22
-9 -79 2 -40 9 -78 14 -84 6 -9 27 -5 76 12 37 13 79 24 94 24 15 0 33 6 40
13 7 7 25 14 40 15 34 2 118 41 118 54 0 5 4 7 9 4 17 -11 41 6 41 29 0 32
-20 36 -55 10 -38 -28 -111 -52 -193 -63 -74 -10 -84 -2 -75 66 4 29 2 42 -6
42 -9 0 -9 5 -1 20 6 11 21 20 33 20 13 0 27 4 33 9 5 6 26 12 47 14 22 3 47
14 61 28 13 13 36 32 50 42 21 14 24 22 16 32 -8 9 -8 15 0 20 11 7 14 48 3
59 -4 4 -8 17 -8 29 0 18 -7 23 -35 25 -19 2 -39 8 -44 13 -13 12 -15 11 -52
-7z m49 -73 c16 -2 6 -72 -13 -91 -12 -12 -19 -24 -16 -28 2 -4 -19 -7 -47 -7
-43 0 -52 3 -55 19 -2 10 1 22 8 26 6 4 12 17 13 28 1 12 6 22 12 22 5 0 15 8
21 18 10 16 25 18 77 13z"/>
<path d="M16125 4091 c-40 -8 -141 -67 -159 -93 -27 -37 5 -51 55 -24 l27 14
7 -56 c6 -50 5 -58 -14 -73 -23 -19 -26 -40 -10 -70 8 -15 7 -26 -4 -42 -20
-32 -49 -126 -42 -137 11 -18 40 -11 73 18 33 27 50 78 57 172 4 55 14 78 56
123 21 23 39 45 39 50 0 10 48 28 87 32 31 3 93 41 93 57 0 4 -10 10 -23 13
-28 7 -112 -29 -175 -75 -43 -31 -75 -33 -50 -3 6 8 13 25 15 36 2 12 5 32 8
45 3 12 2 21 -2 21 -5 -1 -21 -4 -38 -8z"/>
<path d="M8245 4044 c-27 -19 -54 -34 -60 -34 -6 0 -35 -22 -65 -49 -37 -34
-51 -53 -47 -65 9 -23 19 -20 52 14 16 17 39 30 53 30 22 0 24 -3 18 -32 -15
-75 -35 -226 -36 -264 0 -22 6 -49 14 -60 14 -18 16 -18 28 -2 7 9 42 31 78
49 36 18 81 45 101 60 36 29 55 64 39 74 -9 5 -80 -38 -90 -55 -3 -6 -20 -12
-36 -16 l-30 -6 7 59 c4 32 11 94 15 138 4 44 10 85 14 90 4 6 10 29 14 51 8
57 -9 61 -69 18z"/>
<path d="M16757 4059 c-14 -10 -30 -19 -35 -19 -5 0 -15 -7 -22 -15 -7 -8 -18
-15 -25 -15 -19 0 -115 -93 -115 -113 0 -26 24 -20 48 13 22 29 44 36 76 24
10 -4 12 -11 7 -22 -5 -10 -13 -28 -19 -42 -13 -30 -26 -250 -17 -279 6 -21
35 -30 35 -10 0 5 -6 7 -12 3 -8 -4 -10 -3 -5 2 5 5 12 9 16 9 18 0 165 81
191 105 29 27 41 70 20 70 -6 0 -33 -18 -61 -40 -43 -34 -89 -52 -89 -35 0 3
7 51 15 108 9 56 15 111 13 122 -1 11 3 36 9 55 22 68 23 88 9 93 -8 3 -26 -3
-39 -14z"/>
</g>
</svg>
