<svg version="1.1" id="Layer_1" xmlns="http://www.w3.org/2000/svg" xmlns:xlink="http://www.w3.org/1999/xlink" x="0px" y="0px"
	 width="100%" viewBox="0 0 2113 1105" enable-background="new 0 0 2113 1105" xml:space="preserve">
<path fill="none" opacity="1.000000" stroke="#000000" stroke-linecap="round" stroke-linejoin="round" stroke-width="14.000000"
	d="
M1344.500000,267.500000 
	C1344.500000,323.666656 1344.500000,379.833344 1344.500000,436.344513 
	C1349.235840,436.925507 1353.617310,436.299133 1358.029907,434.058899 
	C1379.296875,423.261414 1400.653931,412.641052 1422.004028,402.007996 
	C1439.484375,393.302094 1456.947266,384.557251 1474.535034,376.072662 
	C1479.270020,373.788361 1480.624634,370.473022 1480.578247,365.499268 
	C1480.390015,345.334381 1480.859497,325.158020 1480.375000,305.003021 
	C1480.046265,291.330536 1479.682983,277.649139 1480.131104,264.004303 
	C1480.695068,246.828903 1480.326416,229.666138 1480.425537,212.499573 
	C1480.453125,207.732651 1478.027466,204.266998 1474.859009,200.219009 
	C1466.048584,188.962799 1452.801514,185.896637 1441.393799,179.695389 
	C1421.105225,168.666550 1400.176880,158.812683 1379.495483,148.509033 
	C1369.688354,143.623077 1359.730103,139.028442 1350.050049,133.905518 
	C1346.081421,131.805283 1342.947388,131.881744 1338.954590,133.910629 
	C1312.375610,147.416351 1285.694946,160.723831 1258.986450,173.972565 
	C1247.901733,179.471100 1236.597900,184.529526 1225.534180,190.068237 
	C1221.170410,192.252869 1217.723145,195.601044 1214.249512,199.262390 
	C1209.303101,204.476105 1208.466064,210.054260 1208.472534,216.500031 
	C1208.522217,266.499969 1208.549805,316.500122 1208.420288,366.499786 
	C1208.407715,371.316193 1209.923828,373.976227 1214.440796,376.124542 
	C1230.592041,383.806396 1246.500000,392.000061 1262.500000,400.000031 
	C1284.833374,411.166718 1307.182495,422.301666 1329.486938,433.525970 
	C1334.099976,435.847382 1338.852051,437.020721 1344.500000,436.446442 
	C1344.500000,439.816681 1344.500000,443.158325 1344.500000,446.500000 
"/>
<path fill="none" opacity="1.000000" stroke="#000000" stroke-linecap="round" stroke-linejoin="round" stroke-width="22.000000"
	d="
M988.500000,380.500000 
	C969.636169,372.406189 950.722473,369.995544 931.461426,379.421173 
	C927.356018,381.430237 924.301514,384.697815 920.500000,387.000000 
"/>
<path fill="none" opacity="1.000000" stroke="#000000" stroke-linecap="round" stroke-linejoin="round" stroke-width="21.000000"
	d="
M986.000000,586.000000 
	C974.679932,592.529114 962.545532,594.643188 949.493896,594.168457 
	C936.388184,593.691772 924.333740,590.053833 912.500000,585.000000 
"/>
<path fill="none" opacity="1.000000" stroke="#000000" stroke-linecap="round" stroke-linejoin="round" stroke-width="16.000000"
	d="
M1187.000000,509.500000 
	C1185.094238,505.287628 1186.112305,500.831970 1186.072632,496.499329 
	C1186.029175,491.752411 1185.859131,487.056305 1184.477905,482.506714 
	C1182.461182,475.864563 1176.349609,470.893768 1169.494507,470.669708 
	C1168.534546,470.638367 1167.342041,470.910980 1166.524048,470.456665 
	C1156.717285,465.009216 1148.813843,469.667084 1141.562744,475.576935 
	C1132.585205,482.893799 1127.751953,492.863586 1124.970093,503.992523 
	C1119.818481,524.601562 1119.866455,544.952637 1127.510986,564.995789 
	C1130.493652,572.816101 1134.254639,580.054993 1140.403931,586.097839 
	C1145.891602,591.490540 1152.418213,595.480835 1159.532104,596.167053 
	C1169.219849,597.101685 1179.122803,595.482727 1187.436768,589.413452 
	C1188.882935,588.357849 1189.500000,586.166626 1190.500000,584.499939 
"/>
<path fill="none" opacity="1.000000" stroke="#000000" stroke-linecap="round" stroke-linejoin="round" stroke-width="14.000000"
	d="
M686.000000,589.500000 
	C694.637390,593.925964 703.818848,595.840393 713.500732,595.521362 
	C714.588501,595.485535 715.635620,595.542480 716.500000,594.750000 
"/>
<path fill="none" opacity="1.000000" stroke="#000000" stroke-linecap="round" stroke-linejoin="round" stroke-width="15.000000"
	d="
M1454.250000,475.000000 
	C1454.623413,477.807617 1455.853516,480.151367 1457.425049,482.549103 
	C1463.137695,491.264923 1466.528198,501.153015 1471.024780,510.488068 
	C1480.276001,529.694275 1488.941284,549.234985 1499.252808,567.860046 
	C1506.228516,580.459717 1507.560425,594.073120 1510.500000,607.500000 
"/>
<path fill="none" opacity="1.000000" stroke="#000000" stroke-linecap="round" stroke-linejoin="round" stroke-width="22.000000"
	d="
M729.000000,377.750000 
	C718.412231,375.878021 707.707031,375.829437 697.004211,375.396484 
	C686.674683,374.978577 678.424072,378.672760 671.500000,386.000000 
"/>
<path fill="none" opacity="1.000000" stroke="#000000" stroke-linecap="round" stroke-linejoin="round" stroke-width="13.000000"
	d="
M1214.500000,200.500000 
	C1226.756592,209.669968 1241.012207,215.144379 1254.536987,221.926178 
	C1282.120605,235.757446 1309.479614,250.049103 1337.489380,263.022888 
	C1338.905029,263.678558 1340.251831,264.558319 1341.480835,265.524353 
	C1343.550537,267.151123 1345.284302,266.833954 1347.534912,265.561676 
	C1362.471802,257.117676 1378.068604,249.975388 1393.473389,242.445541 
	C1411.753174,233.510391 1429.838257,224.176376 1447.996582,214.993179 
	C1452.519775,212.705704 1456.857422,209.977142 1461.540771,208.101868 
	C1466.074341,206.286667 1469.775024,203.439987 1473.500000,200.500000 
"/>
<path fill="none" opacity="1.000000" stroke="#000000" stroke-linecap="round" stroke-linejoin="round" stroke-width="15.000000"
	d="
M1422.500000,468.500000 
	C1419.237915,470.415436 1415.485229,469.744995 1411.994629,470.474457 
	C1406.370728,471.649811 1405.000000,473.226990 1405.000000,479.000000 
	C1405.000000,515.000000 1405.000000,551.000000 1405.000000,587.000000 
	C1405.000000,592.677612 1406.044800,593.941406 1411.492188,595.526855 
	C1414.942383,596.531067 1418.759155,595.472595 1422.000000,597.500000 
"/>
<path fill="none" opacity="1.000000" stroke="#000000" stroke-linecap="round" stroke-linejoin="round" stroke-width="7.000000"
	d="
M1452.000000,483.500000 
	C1449.506226,485.806122 1448.847778,488.682678 1448.954102,492.001465 
	C1449.125000,497.329346 1449.042358,502.667053 1448.991821,507.999908 
	C1448.848145,523.166809 1448.013672,538.362732 1448.695557,553.491150 
	C1449.297729,566.849548 1447.484619,580.183533 1449.000000,593.500000 
"/>
<path fill="none" opacity="1.000000" stroke="#000000" stroke-linecap="round" stroke-linejoin="round" stroke-width="7.000000"
	d="
M1510.000000,473.000000 
	C1509.857422,486.333649 1509.609131,499.684326 1509.723511,512.998108 
	C1509.862305,529.163391 1509.665649,545.335876 1510.051514,561.498779 
	C1510.128296,564.711731 1509.603271,567.434570 1507.000000,569.500000 
"/>
<path fill="none" opacity="1.000000" stroke="#000000" stroke-linecap="round" stroke-linejoin="round" stroke-width="22.000000"
	d="
M714.000000,485.500000 
	C709.059204,484.278351 704.020630,484.507446 699.000000,484.503265 
	C686.833313,484.493134 674.666687,484.500000 662.500000,484.500000 
"/>
<path fill="none" opacity="1.000000" stroke="#000000" stroke-linecap="round" stroke-linejoin="round" stroke-width="7.000000"
	d="
M1052.000000,739.000000 
	C1047.489624,733.656799 1047.419678,726.763733 1045.343140,720.552429 
	C1042.868652,713.151245 1045.252930,705.800049 1044.319336,698.507507 
	C1042.086060,698.336060 1040.265259,697.053223 1038.004272,696.924866 
	C1030.727295,696.511841 1025.547852,699.404175 1022.510315,706.004761 
	C1018.369568,715.002625 1014.929810,724.217773 1012.898193,733.978821 
	C1011.996887,738.308838 1014.147156,743.048279 1011.000000,747.000000 
"/>
<path fill="none" opacity="1.000000" stroke="#000000" stroke-linecap="round" stroke-linejoin="round" stroke-width="14.000000"
	d="
M1339.500000,474.750000 
	C1342.628296,475.936340 1343.033813,479.172791 1343.345459,481.520508 
	C1345.332275,496.490356 1348.933960,511.150360 1351.643433,525.973755 
	C1355.227173,545.580322 1359.835815,564.999512 1363.998779,584.500244 
	C1365.760132,592.750977 1367.853638,594.637451 1376.494995,596.031189 
	C1378.415161,596.340881 1380.661499,595.972595 1382.000000,598.000000 
"/>
<path fill="none" opacity="1.000000" stroke="#000000" stroke-linecap="round" stroke-linejoin="round" stroke-width="15.000000"
	d="
M1292.500000,469.500000 
	C1275.265625,471.538727 1276.884521,470.991211 1276.984497,486.500092 
	C1277.062012,498.499603 1277.000000,510.500000 1277.000000,522.500000 
	C1277.000000,544.000000 1277.000000,565.500000 1277.000000,587.000000 
	C1277.000000,592.707886 1276.029419,594.103271 1270.489258,595.455994 
	C1268.053101,596.050842 1265.499268,596.420044 1263.000244,596.413025 
	C1261.266724,596.408142 1261.242554,597.719849 1260.500000,598.500000 
"/>
<path fill="none" opacity="1.000000" stroke="#000000" stroke-linecap="round" stroke-linejoin="round" stroke-width="15.000000"
	d="
M1236.500000,469.500000 
	C1234.166626,469.666687 1231.813843,469.696350 1229.503662,470.025726 
	C1222.706177,470.994781 1221.000000,473.056427 1221.000000,480.000000 
	C1221.000000,494.166656 1220.384521,508.368988 1221.202026,522.488281 
	C1221.813599,533.047668 1220.500366,543.487610 1220.910278,554.003479 
	C1221.319092,564.487549 1221.000000,575.000000 1221.000000,585.500000 
	C1221.000000,592.385925 1223.166748,594.928040 1230.001465,595.990540 
	C1231.491333,596.222046 1233.030640,596.605652 1234.493286,596.440857 
	C1237.160889,596.140381 1237.081543,597.737549 1237.000000,599.500000 
"/>
<path fill="none" opacity="1.000000" stroke="#000000" stroke-linecap="round" stroke-linejoin="round" stroke-width="8.000000"
	d="
M1352.000000,535.000000 
	C1343.877686,536.419922 1335.674683,534.690857 1327.472290,535.793457 
	C1323.088745,536.382751 1321.246338,538.457642 1320.557983,542.011230 
	C1318.238892,553.981750 1316.147583,565.996582 1314.009277,578.001648 
	C1313.120483,582.991760 1312.333252,588.000000 1311.499878,593.000000 
"/>
<path fill="none" opacity="1.000000" stroke="#000000" stroke-linecap="round" stroke-linejoin="round" stroke-width="6.000000"
	d="
M1338.000000,476.000000 
	C1333.559570,478.105499 1332.784424,482.214874 1331.956055,486.491486 
	C1329.239868,500.514191 1326.412109,514.516785 1323.431274,528.485352 
	C1322.858765,531.168640 1323.117798,533.547729 1324.000000,536.000000 
"/>
<path fill="none" opacity="1.000000" stroke="#000000" stroke-linecap="round" stroke-linejoin="round" stroke-width="14.000000"
	d="
M657.500000,393.000000 
	C642.909790,378.728088 625.937500,370.272736 605.000000,371.500000 
"/>
<path fill="none" opacity="1.000000" stroke="#000000" stroke-linecap="round" stroke-linejoin="round" stroke-width="9.000000"
	d="
M1275.500000,529.000000 
	C1257.968018,528.826172 1240.499512,530.320984 1223.000000,531.000000 
"/>
<path fill="none" opacity="1.000000" stroke="#000000" stroke-linecap="round" stroke-linejoin="round" stroke-width="14.000000"
	d="
M657.500000,574.000000 
	C642.940735,588.347534 626.036072,596.967957 605.000000,595.500000 
"/>
<path fill="none" opacity="1.000000" stroke="#000000" stroke-linecap="round" stroke-linejoin="round" stroke-width="9.000000"
	d="
M1471.500000,735.500000 
	C1464.326660,739.760864 1456.010498,741.058838 1448.405396,744.276489 
	C1444.749146,745.823547 1438.944824,743.920349 1438.090942,739.482483 
	C1435.621704,726.648071 1436.221436,714.256042 1444.989380,703.491333 
	C1447.106445,700.891968 1449.870850,700.476013 1452.997925,700.406860 
	C1454.577759,700.371948 1454.449585,701.050415 1454.500000,702.000000 
"/>
<path fill="none" opacity="1.000000" stroke="#000000" stroke-linecap="round" stroke-linejoin="round" stroke-width="5.000000"
	d="
M237.000000,715.500000 
	C235.983612,722.111633 230.172409,723.733643 225.492599,726.487427 
	C215.893341,732.136047 205.800705,736.745667 194.977463,739.408386 
	C189.601410,740.730957 184.447479,744.119995 178.500000,742.000000 
"/>
<path fill="none" opacity="1.000000" stroke="#000000" stroke-linecap="round" stroke-linejoin="round" stroke-width="6.000000"
	d="
M1231.000000,673.500000 
	C1231.816162,676.333313 1231.958496,679.237061 1230.960083,681.985474 
	C1228.839478,687.822144 1230.249756,694.304749 1227.506226,700.002991 
	C1226.632812,701.817017 1226.218262,704.027771 1224.913330,705.418701 
	C1222.743408,707.731445 1222.222046,710.275146 1223.067383,712.978943 
	C1224.226318,716.685669 1223.241089,720.348145 1221.308350,722.852051 
	C1218.592773,726.370056 1217.677490,730.193542 1218.149292,733.981384 
	C1219.303833,743.249268 1219.679321,752.739746 1223.514526,761.493652 
	C1225.712769,766.511230 1230.532593,769.623413 1233.138062,774.425049 
	C1233.688843,775.440186 1236.000000,775.500000 1237.500000,776.000000 
"/>
<path fill="none" opacity="1.000000" stroke="#000000" stroke-linecap="round" stroke-linejoin="round" stroke-width="7.000000"
	d="
M276.500000,684.500000 
	C286.546875,682.779785 287.132080,685.129822 285.465424,695.994690 
	C284.299042,703.598145 281.326660,710.714233 278.994904,717.998352 
	C277.847656,721.582153 276.976868,725.200134 277.507904,728.998901 
	C277.871979,731.603149 276.827667,733.999268 276.500000,736.500000 
"/>
<path fill="none" opacity="1.000000" stroke="#000000" stroke-linecap="round" stroke-linejoin="round" stroke-width="7.000000"
	d="
M479.500000,717.750000 
	C482.502502,717.742920 485.621582,716.819519 488.473145,718.061646 
	C491.438843,719.353577 494.663757,719.666382 496.178619,723.936646 
	C501.329926,738.457214 513.225525,743.327759 527.501892,743.956604 
	C530.488770,744.088135 533.500000,743.666687 536.500000,743.500000 
"/>
<path fill="none" opacity="1.000000" stroke="#000000" stroke-linecap="round" stroke-linejoin="round" stroke-width="6.000000"
	d="
M662.500000,662.000000 
	C662.886292,662.979736 661.866455,663.421265 661.497253,663.437744 
	C656.573669,663.657166 654.129761,666.514709 652.987488,670.996826 
	C650.368408,681.274292 645.976074,691.031189 644.000000,701.500000 
"/>
<path fill="none" opacity="1.000000" stroke="#000000" stroke-linecap="round" stroke-linejoin="round" stroke-width="5.000000"
	d="
M1551.000000,713.000000 
	C1544.231567,712.371582 1540.989380,717.743347 1537.075073,721.576721 
	C1531.773315,726.768555 1527.018066,732.516602 1521.992554,737.993103 
	C1519.413818,740.803284 1516.213379,740.280579 1513.000000,739.500000 
"/>
<path fill="none" opacity="1.000000" stroke="#000000" stroke-linecap="round" stroke-linejoin="round" stroke-width="8.000000"
	d="
M1223.000000,706.500000 
	C1221.000000,705.000000 1219.153564,703.208313 1216.969482,702.057922 
	C1211.687378,699.275879 1206.998169,701.092163 1202.514404,707.510071 
	C1197.372925,714.869507 1194.429810,723.073120 1193.504272,732.000427 
	C1193.470093,732.330200 1193.367065,732.753296 1193.519531,732.987244 
	C1197.331421,738.836731 1193.866821,744.666687 1193.500000,750.500000 
"/>
<path fill="none" opacity="1.000000" stroke="#000000" stroke-linecap="round" stroke-linejoin="round" stroke-width="8.000000"
	d="
M338.000000,742.500000 
	C340.421082,739.833313 338.625885,737.203125 338.029877,734.493408 
	C335.924591,724.922241 335.713318,715.848694 342.368317,707.396301 
	C346.721863,701.866943 352.675720,700.965759 358.527069,700.209412 
	C363.341919,699.587036 365.868591,704.506897 365.087921,709.513733 
	C363.340302,720.722046 357.077728,729.187561 349.506042,737.005859 
	C346.668671,739.935608 343.398529,740.927490 339.500000,739.500000 
"/>
<path fill="none" opacity="1.000000" stroke="#000000" stroke-linecap="round" stroke-linejoin="round" stroke-width="5.000000"
	d="
M1837.000000,715.000000 
	C1829.944214,713.812073 1825.857056,718.887207 1822.194336,723.166321 
	C1818.599365,727.366516 1813.733154,729.977661 1810.302734,734.345093 
	C1808.867554,736.172363 1805.244629,736.079956 1802.500000,735.000000 
"/>
<path fill="none" opacity="1.000000" stroke="#000000" stroke-linecap="round" stroke-linejoin="round" stroke-width="5.000000"
	d="
M1847.500000,703.000000 
	C1841.123413,703.000000 1841.908813,703.268677 1839.800293,709.431702 
	C1837.189087,717.064697 1837.941528,724.828552 1836.878174,732.483093 
	C1836.194214,737.406616 1834.577515,742.251038 1832.942749,746.980164 
	C1830.496460,754.056396 1827.259399,760.876404 1825.089844,768.027222 
	C1821.277222,780.593323 1815.984131,792.410706 1809.000000,803.500000 
"/>
<path fill="none" opacity="1.000000" stroke="#000000" stroke-linecap="round" stroke-linejoin="round" stroke-width="5.000000"
	d="
M921.000000,697.500000 
	C919.951599,702.735962 917.102783,705.819763 911.512817,706.592651 
	C906.986938,707.218384 903.839417,710.538025 900.432617,713.420349 
	C895.029236,717.992004 891.310669,723.982239 886.418274,728.919006 
	C883.554565,731.808777 880.566162,734.286438 879.408081,738.474548 
	C878.708984,741.002869 876.680603,742.928284 874.500000,744.500000 
"/>
<path fill="none" opacity="1.000000" stroke="#000000" stroke-linecap="round" stroke-linejoin="round" stroke-width="11.000000"
	d="
M766.000000,739.500000 
	C762.574707,735.444153 760.626099,730.767883 759.985596,725.501770 
	C759.568726,722.074158 759.298035,718.610535 757.518372,715.489502 
	C756.122620,713.041870 757.429077,710.478699 757.582397,708.005127 
	C757.799805,704.495361 759.369324,700.708862 755.947571,698.067932 
	C753.101013,695.871094 744.534302,697.066101 741.487610,699.484375 
	C737.826843,702.390076 735.633179,706.227417 733.989380,710.495911 
	C730.663330,719.133118 726.987000,727.690857 726.075378,737.007385 
	C725.710449,740.736877 726.080139,744.531677 724.250000,748.000000 
"/>
<path fill="none" opacity="1.000000" stroke="#000000" stroke-linecap="round" stroke-linejoin="round" stroke-width="5.000000"
	d="
M1142.500000,706.500000 
	C1133.498901,706.609253 1128.155029,712.909485 1122.557007,718.556519 
	C1119.568726,721.571045 1117.231689,725.221802 1114.471802,728.476135 
	C1113.147827,730.037231 1111.781616,731.711853 1109.500000,732.000000 
"/>
<path fill="none" opacity="1.000000" stroke="#000000" stroke-linecap="round" stroke-linejoin="round" stroke-width="5.000000"
	d="
M756.500000,714.000000 
	C747.677979,716.511353 745.053223,725.225220 739.545837,731.043396 
	C737.107361,733.619446 735.294678,736.778259 732.956116,739.461792 
	C731.326355,741.331909 728.927734,741.681763 726.500000,741.500000 
"/>
<path fill="none" opacity="1.000000" stroke="#000000" stroke-linecap="round" stroke-linejoin="round" stroke-width="4.000000"
	d="
M1043.500000,714.500000 
	C1038.189819,715.335266 1034.707520,718.609741 1031.988403,722.992859 
	C1028.402954,728.772705 1023.854187,733.809448 1019.543091,739.035522 
	C1017.868652,741.065308 1015.944580,741.733643 1013.500000,741.500000 
"/>
<path fill="none" opacity="1.000000" stroke="#000000" stroke-linecap="round" stroke-linejoin="round" stroke-width="6.000000"
	d="
M1403.500000,733.500000 
	C1394.796021,739.605591 1384.657471,741.372620 1374.487793,742.919861 
	C1372.908447,743.160095 1371.166626,742.333374 1369.500000,742.000061 
"/>
<path fill="none" opacity="1.000000" stroke="#000000" stroke-linecap="round" stroke-linejoin="round" stroke-width="6.000000"
	d="
M439.500000,735.000000 
	C432.096954,738.546692 424.119934,740.573364 416.560425,743.648499 
	C413.147736,745.036865 410.143555,743.397888 407.003967,744.020020 
	C406.972168,744.026306 406.967743,744.341736 407.008606,744.497742 
	C407.054779,744.674133 407.166656,744.833313 407.250000,745.000000 
"/>
<path fill="none" opacity="1.000000" stroke="#000000" stroke-linecap="round" stroke-linejoin="round" stroke-width="8.000000"
	d="
M604.500000,735.000000 
	C597.097534,738.548157 589.208557,740.776794 581.509766,743.527405 
	C574.142517,746.159546 569.974304,743.690918 568.984619,736.001953 
	C567.651245,725.641663 568.638794,715.744385 573.955444,706.474426 
	C576.145203,702.656372 579.021606,700.592041 583.498413,700.449646 
	C587.927979,700.308899 591.905151,697.473450 596.500000,698.000000 
"/>
<path fill="none" opacity="1.000000" stroke="#000000" stroke-linecap="round" stroke-linejoin="round" stroke-width="8.000000"
	d="
M1524.500000,696.500000 
	C1520.469116,698.906555 1518.470093,702.272217 1516.673828,706.872681 
	C1513.264282,715.604492 1513.992432,724.722107 1512.134521,733.528381 
	C1511.397583,737.022034 1512.166748,740.833313 1512.250000,744.500000 
"/>
<path fill="none" opacity="1.000000" stroke="#000000" stroke-linecap="round" stroke-linejoin="round" stroke-width="9.000000"
	d="
M407.000000,743.500000 
	C401.632324,736.835022 403.234436,728.856323 403.775421,721.520325 
	C404.216980,715.532166 406.213043,709.430115 410.401031,704.417297 
	C411.635315,702.939941 413.133545,701.253052 414.510590,701.164429 
	C420.331085,700.789734 425.637177,697.888489 431.500000,698.000000 
"/>
<path fill="none" opacity="1.000000" stroke="#000000" stroke-linecap="round" stroke-linejoin="round" stroke-width="6.000000"
	d="
M522.500000,688.500000 
	C521.696411,691.743591 517.259521,695.498108 514.000122,695.479919 
	C506.218536,695.436401 499.862885,698.051208 494.354553,703.862122 
	C491.203369,707.186401 486.948792,710.366943 481.500000,707.750000 
"/>
<path fill="none" opacity="1.000000" stroke="#000000" stroke-linecap="round" stroke-linejoin="round" stroke-width="11.000000"
	d="
M1658.500000,716.500000 
	C1660.065552,713.165527 1662.935303,711.266541 1665.980103,709.466248 
	C1668.314941,708.085632 1670.813232,707.921509 1672.941162,709.105713 
	C1675.061279,710.285583 1674.979858,713.033691 1674.405884,714.972168 
	C1672.560181,721.206909 1671.608032,727.609985 1671.654541,733.998901 
	C1671.694702,739.516357 1668.294312,744.099976 1668.500000,749.500000 
"/>
<path fill="none" opacity="1.000000" stroke="#000000" stroke-linecap="round" stroke-linejoin="round" stroke-width="11.000000"
	d="
M810.000000,715.500000 
	C812.455139,713.145874 814.609741,710.472412 817.989014,709.220337 
	C822.832825,707.425781 825.689087,708.999084 825.411499,713.995056 
	C825.169434,718.351990 824.104492,722.658264 823.514648,727.002014 
	C822.646973,733.393127 823.434143,740.071777 820.048218,746.027405 
	C819.690186,746.657166 820.000000,747.666687 820.000000,748.500000 
"/>
<path fill="none" opacity="1.000000" stroke="#000000" stroke-linecap="round" stroke-linejoin="round" stroke-width="5.000000"
	d="
M1760.500000,732.000061 
	C1759.833374,732.333374 1758.877563,732.487732 1758.543701,733.027100 
	C1754.108887,740.190430 1746.648804,742.838379 1739.514404,746.032227 
	C1737.090088,747.117432 1734.833374,745.894104 1732.500000,746.000000 
"/>
<path fill="none" opacity="1.000000" stroke="#000000" stroke-linecap="round" stroke-linejoin="round" stroke-width="9.000000"
	d="
M482.000000,718.500000 
	C482.175537,724.521667 479.518372,729.897095 477.831146,735.448669 
	C477.280609,737.260071 476.351929,738.977356 475.851471,740.962585 
	C474.979614,744.421082 472.221283,746.035461 468.500000,745.500000 
"/>
<path fill="none" opacity="1.000000" stroke="#000000" stroke-linecap="round" stroke-linejoin="round" stroke-width="12.000000"
	d="
M672.000000,748.500000 
	C671.407471,744.363464 674.429077,740.777405 673.565979,736.486755 
	C671.999756,728.700256 671.010986,720.797058 669.423645,713.015564 
	C668.650513,709.225159 662.868774,708.419189 659.036255,711.544434 
	C656.673767,713.470947 654.318604,715.588257 652.580444,718.056641 
	C649.873169,721.901062 648.150452,726.334778 643.049255,728.139282 
	C640.546326,729.024658 641.436768,732.228394 640.896606,734.475159 
	C639.685730,739.511658 637.167969,744.066040 634.500000,748.500000 
"/>
<path fill="none" opacity="1.000000" stroke="#000000" stroke-linecap="round" stroke-linejoin="round" stroke-width="5.000000"
	d="
M217.000000,679.500000 
	C216.748840,683.883423 214.296341,686.483093 210.545685,688.581665 
	C205.759552,691.259583 200.118820,693.235657 198.500000,699.500000 
"/>
<path fill="none" opacity="1.000000" stroke="#000000" stroke-linecap="round" stroke-linejoin="round" stroke-width="5.000000"
	d="
M515.000000,696.500000 
	C513.883972,703.583252 508.418488,707.481323 503.399750,711.370667 
	C500.055756,713.962036 496.711151,716.331421 494.500000,720.000000 
"/>
<path fill="none" opacity="1.000000" stroke="#000000" stroke-linecap="round" stroke-linejoin="round" stroke-width="6.000000"
	d="
M1331.000000,727.500000 
	C1327.468750,727.312500 1329.174316,730.586365 1328.107788,732.077148 
	C1323.871094,738.000000 1319.161621,743.358154 1311.962524,745.365662 
	C1308.892456,746.221741 1308.499634,748.383057 1307.500000,750.500000 
"/>
<path fill="none" opacity="1.000000" stroke="#000000" stroke-linecap="round" stroke-linejoin="round" stroke-width="6.000000"
	d="
M891.500000,697.500000 
	C885.668884,700.575989 883.031494,705.814209 883.173279,711.996033 
	C883.262573,715.891052 882.547852,719.542053 881.330261,722.939148 
	C880.112732,726.336182 880.572754,729.070007 882.000000,732.000000 
"/>
<path fill="none" opacity="1.000000" stroke="#000000" stroke-linecap="round" stroke-linejoin="round" stroke-width="8.000000"
	d="
M222.500000,678.500000 
	C217.355133,679.731628 212.960037,678.187195 208.417725,675.647156 
	C205.000519,673.736267 200.847534,673.117065 196.995911,672.014282 
	C193.363785,670.974365 191.049927,671.881714 189.921310,675.978333 
	C187.793213,683.702942 185.693726,691.418823 186.653885,699.481689 
	C186.832291,700.979736 186.677124,701.906250 186.000000,703.000000 
"/>
<path fill="none" opacity="1.000000" stroke="#000000" stroke-linecap="round" stroke-linejoin="round" stroke-width="5.000000"
	d="
M695.500000,729.500000 
	C696.420715,731.627014 694.091675,733.047424 693.425293,733.311768 
	C689.470642,734.880798 686.604919,737.992859 683.074951,740.124084 
	C680.118530,741.908936 677.554443,742.545959 674.500000,741.000000 
"/>
<path fill="none" opacity="1.000000" stroke="#000000" stroke-linecap="round" stroke-linejoin="round" stroke-width="9.000000"
	d="
M187.500000,700.500000 
	C201.193756,698.968079 213.660965,704.362366 226.460373,707.654114 
	C229.560165,708.451355 232.443848,710.859863 234.915955,713.093018 
	C237.053635,715.024048 238.966278,715.590576 241.500000,714.500000 
"/>
<path fill="none" opacity="1.000000" stroke="#000000" stroke-linecap="round" stroke-linejoin="round" stroke-width="5.000000"
	d="
M300.500000,729.500000 
	C295.653442,734.134216 289.708618,736.933655 283.451263,738.840088 
	C281.340240,739.483337 278.355652,740.046143 276.393707,737.070068 
	C275.429260,735.607239 273.156311,736.770142 271.500000,736.500000 
"/>
<path fill="none" opacity="1.000000" stroke="#000000" stroke-linecap="round" stroke-linejoin="round" stroke-width="8.000000"
	d="
M184.000000,719.500000 
	C182.730621,726.484619 177.536942,732.389465 178.465118,740.004272 
	C178.824173,742.949951 175.676422,744.146667 174.750000,746.500000 
"/>
<path fill="none" opacity="1.000000" stroke="#000000" stroke-linecap="round" stroke-linejoin="round" stroke-width="7.000000"
	d="
M1749.500000,676.500000 
	C1744.000854,681.863708 1742.863159,689.334656 1739.871948,695.942017 
	C1736.083374,704.310669 1736.027344,713.419556 1733.818481,722.081238 
	C1732.656006,726.639648 1731.450684,731.328735 1730.369873,735.969727 
	C1729.799194,738.420959 1730.571045,740.743591 1731.257080,742.393066 
	C1732.421753,745.193176 1731.894775,747.204590 1730.750000,749.500000 
"/>
<path fill="none" opacity="1.000000" stroke="#000000" stroke-linecap="round" stroke-linejoin="round" stroke-width="10.000000"
	d="
M1559.500000,701.500000 
	C1554.505005,706.070679 1550.389038,710.708313 1552.350220,718.537537 
	C1553.759766,724.164612 1551.822632,730.195557 1553.000000,736.000000 
"/>
<path fill="none" opacity="1.000000" stroke="#000000" stroke-linecap="round" stroke-linejoin="round" stroke-width="9.000000"
	d="
M915.500000,706.500000 
	C917.123718,712.219299 915.093994,717.845764 914.794739,723.489136 
	C914.574829,727.636658 914.039368,731.809814 914.000000,736.000000 
"/>
<path fill="none" opacity="1.000000" stroke="#000000" stroke-linecap="round" stroke-linejoin="round" stroke-width="10.000000"
	d="
M1613.500000,700.750000 
	C1609.768188,702.275818 1609.208862,705.549927 1610.647583,708.426208 
	C1612.467651,712.065063 1611.763184,715.428223 1610.377197,718.443542 
	C1607.783203,724.087402 1609.014038,730.436462 1606.499878,735.999939 
	C1605.138916,739.011292 1604.679810,742.743896 1600.500000,743.500000 
"/>
<path fill="none" opacity="1.000000" stroke="#000000" stroke-linecap="round" stroke-linejoin="round" stroke-width="6.000000"
	d="
M1392.000000,702.500000 
	C1395.251099,710.959656 1391.011475,717.751770 1382.033203,719.656250 
	C1378.630737,720.377869 1375.422119,721.054504 1372.000000,720.500000 
"/>
<path fill="none" opacity="1.000000" stroke="#000000" stroke-linecap="round" stroke-linejoin="round" stroke-width="11.000000"
	d="
M1332.000000,693.500000 
	C1328.636475,694.933044 1325.078247,695.804749 1321.968872,697.955078 
	C1312.705688,704.361511 1315.477173,709.626404 1320.239624,714.778564 
	C1323.915649,718.755493 1327.118408,722.736633 1329.500000,727.500000 
"/>
<path fill="none" opacity="1.000000" stroke="#000000" stroke-linecap="round" stroke-linejoin="round" stroke-width="6.000000"
	d="
M642.500000,701.500000 
	C645.691528,702.595032 643.992859,704.971375 643.407288,706.463623 
	C641.366516,711.664856 641.395264,717.113342 641.091736,722.505188 
	C640.999756,724.138550 642.000000,725.833313 642.500000,727.500000 
"/>
<path fill="none" opacity="1.000000" stroke="#000000" stroke-linecap="round" stroke-linejoin="round" stroke-width="5.000000"
	d="
M1217.500000,729.000000 
	C1213.103882,728.409058 1209.887695,730.793274 1207.046143,733.547668 
	C1203.974365,736.525085 1200.456421,738.570618 1196.500000,740.000000 
"/>
<path fill="none" opacity="1.000000" stroke="#000000" stroke-linecap="round" stroke-linejoin="round" stroke-width="11.000000"
	d="
M1810.000000,696.000000 
	C1806.362671,700.362671 1803.006958,704.505737 1803.316772,711.008728 
	C1803.688721,718.811279 1800.586060,726.523132 1801.940918,734.510010 
	C1802.317627,736.730286 1800.064941,738.115784 1799.250000,740.000000 
"/>
<path fill="none" opacity="1.000000" stroke="#000000" stroke-linecap="round" stroke-linejoin="round" stroke-width="5.000000"
	d="
M1639.500000,700.000000 
	C1631.652710,702.638672 1622.891113,703.452148 1617.501953,711.001404 
	C1616.215820,712.803040 1614.312622,712.486572 1612.500000,712.500000 
"/>
<path fill="none" opacity="1.000000" stroke="#000000" stroke-linecap="round" stroke-linejoin="round" stroke-width="6.000000"
	d="
M934.500000,728.500000 
	C931.033752,732.363403 925.847229,733.635193 921.908325,736.889038 
	C919.660461,738.746033 916.546509,738.589111 914.000000,736.500000 
"/>
<path fill="none" opacity="1.000000" stroke="#000000" stroke-linecap="round" stroke-linejoin="round" stroke-width="5.000000"
	d="
M785.500000,724.500000 
	C780.233826,730.610596 774.704224,736.362183 767.013123,739.531860 
	C763.636230,740.923523 765.473083,744.111328 765.000000,746.500000 
"/>
<path fill="none" opacity="1.000000" stroke="#000000" stroke-linecap="round" stroke-linejoin="round" stroke-width="7.000000"
	d="
M491.750000,665.000000 
	C488.323639,669.991272 485.462708,674.902283 485.256195,681.492371 
	C485.058716,687.796082 484.772522,694.259216 483.124115,700.532593 
	C482.520447,702.830200 483.333344,705.500000 483.500031,708.000000 
"/>
<path fill="none" opacity="1.000000" stroke="#000000" stroke-linecap="round" stroke-linejoin="round" stroke-width="5.000000"
	d="
M1161.500000,729.000000 
	C1158.418091,732.085327 1154.157349,733.403015 1150.814575,736.284973 
	C1148.849854,737.978821 1145.086426,738.388367 1142.000000,737.000000 
"/>
<path fill="none" opacity="1.000000" stroke="#000000" stroke-linecap="round" stroke-linejoin="round" stroke-width="5.000000"
	d="
M1690.500000,730.500000 
	C1685.833496,736.587952 1680.299561,740.986755 1672.000000,740.000000 
"/>
<path fill="none" opacity="1.000000" stroke="#000000" stroke-linecap="round" stroke-linejoin="round" stroke-width="6.000000"
	d="
M1118.000000,698.250000 
	C1113.701904,700.315002 1111.951050,703.679626 1111.321045,708.476501 
	C1110.706177,713.157471 1110.869751,718.101074 1108.569092,722.535828 
	C1108.092163,723.455139 1108.251831,724.898865 1108.539917,725.989441 
	C1110.521606,733.492188 1107.012817,739.148315 1102.500000,744.500000 
"/>
<path fill="none" opacity="1.000000" stroke="#000000" stroke-linecap="round" stroke-linejoin="round" stroke-width="5.000000"
	d="
M1072.500000,725.500000 
	C1068.710205,727.052246 1066.205200,730.196289 1063.557007,733.052795 
	C1061.360718,735.421875 1058.681152,737.797363 1055.959106,738.259338 
	C1050.390381,739.204651 1050.871094,742.711121 1051.000000,746.500000 
"/>
<path fill="none" opacity="1.000000" stroke="#000000" stroke-linecap="round" stroke-linejoin="round" stroke-width="8.000000"
	d="
M297.500000,668.500000 
	C293.268433,673.782654 287.811157,678.107666 285.000000,684.500000 
"/>
<path fill="none" opacity="1.000000" stroke="#000000" stroke-linecap="round" stroke-linejoin="round" stroke-width="6.000000"
	d="
M841.000000,731.500000 
	C836.463196,737.002869 831.298401,741.131958 823.500000,739.500000 
"/>
<path fill="none" opacity="1.000000" stroke="#000000" stroke-linecap="round" stroke-linejoin="round" stroke-width="6.000000"
	d="
M1405.000000,592.000000 
	C1401.052246,595.736755 1395.985596,596.033447 1390.996948,596.464600 
	C1389.564453,596.588501 1388.230103,596.454285 1388.500000,598.500000 
"/>
<path fill="none" opacity="1.000000" stroke="#000000" stroke-linecap="round" stroke-linejoin="round" stroke-width="8.000000"
	d="
M1740.000000,699.000000 
	C1745.911011,700.935242 1751.975708,700.947693 1757.983032,699.902710 
	C1760.493042,699.466248 1762.949341,698.953857 1765.500000,699.000000 
"/>
<path fill="none" opacity="1.000000" stroke="#000000" stroke-linecap="round" stroke-linejoin="round" stroke-width="6.000000"
	d="
M1221.000000,474.000000 
	C1217.209595,470.371307 1212.304932,470.069946 1207.498291,469.514648 
	C1206.109009,469.354126 1204.583618,469.832306 1203.500000,468.500000 
"/>
<path fill="none" opacity="1.000000" stroke="#000000" stroke-linecap="round" stroke-linejoin="round" stroke-width="6.000000"
	d="
M1405.000000,474.000000 
	C1401.209595,470.371307 1396.304932,470.069977 1391.498291,469.514648 
	C1390.108887,469.354156 1388.583618,469.832306 1387.500000,468.500000 
"/>
<path fill="none" opacity="1.000000" stroke="#000000" stroke-linecap="round" stroke-linejoin="round" stroke-width="7.000000"
	d="
M1452.500000,474.000000 
	C1449.105835,469.786835 1444.107910,470.186798 1439.496948,469.520782 
	C1438.115967,469.321320 1436.583618,469.832306 1435.500000,468.500000 
"/>
<path fill="none" opacity="1.000000" stroke="#000000" stroke-linecap="round" stroke-linejoin="round" stroke-width="6.000000"
	d="
M1221.000000,592.000000 
	C1217.052246,595.736755 1211.983765,596.009766 1206.997681,596.474854 
	C1205.880249,596.579102 1204.716064,596.314697 1204.000000,597.500000 
"/>
<path fill="none" opacity="1.000000" stroke="#000000" stroke-linecap="round" stroke-linejoin="round" stroke-width="6.000000"
	d="
M1364.500000,592.000000 
	C1361.774780,594.853516 1358.413574,595.799805 1354.524658,596.225037 
	C1353.063354,596.384827 1349.646851,594.627136 1349.500000,598.500000 
"/>
<path fill="none" opacity="1.000000" stroke="#000000" stroke-linecap="round" stroke-linejoin="round" stroke-width="6.000000"
	d="
M1277.500000,592.000000 
	C1282.928833,596.864380 1290.149292,596.411377 1296.567261,597.652283 
	C1300.366211,598.386841 1304.886597,595.822693 1308.975586,594.428467 
	C1310.786865,593.810791 1312.360596,593.417542 1313.993408,594.509827 
	C1316.279175,596.039062 1318.941406,596.149048 1321.507080,596.436523 
	C1322.985596,596.602112 1323.684326,596.982361 1323.500000,598.500000 
"/>
<path fill="none" opacity="1.000000" stroke="#000000" stroke-linecap="round" stroke-linejoin="round" stroke-width="6.000000"
	d="
M1277.000000,474.000000 
	C1272.552246,470.023682 1267.021729,469.776825 1261.500000,469.500000 
"/>
<path fill="none" opacity="1.000000" stroke="#000000" stroke-linecap="round" stroke-linejoin="round" stroke-width="7.000000"
	d="
M181.500000,703.500000 
	C182.819275,703.220886 184.303650,704.262573 185.844040,702.815613 
	C183.462677,707.296936 184.379623,712.028809 183.550278,716.509277 
	C183.332138,717.687683 182.910400,719.709290 185.500000,718.750000 
"/>
<path fill="none" opacity="1.000000" stroke="#000000" stroke-linecap="round" stroke-linejoin="round" stroke-width="10.000000"
	d="
M1395.000000,700.250000 
	C1393.261475,701.083557 1392.004639,702.383728 1389.459473,701.638611 
	C1382.460449,699.589600 1373.850830,705.571655 1372.526489,713.004700 
	C1371.868530,716.697815 1372.445557,720.705872 1369.060059,723.570923 
	C1368.469727,724.070435 1368.280273,725.628906 1368.563721,726.478699 
	C1370.172485,731.301819 1366.384033,736.172363 1368.916382,741.043457 
	C1369.863037,742.864197 1367.171387,743.835693 1366.750000,745.500000 
"/>
<path fill="none" opacity="1.000000" stroke="#000000" stroke-linecap="round" stroke-linejoin="round" stroke-width="6.000000"
	d="
M1436.500122,598.500000 
	C1436.583374,598.000000 1436.567017,597.107971 1436.764771,597.057617 
	C1440.995361,595.981689 1445.462402,593.697083 1449.443604,594.346069 
	C1453.920410,595.075928 1458.468872,595.983398 1462.987183,596.819275 
	C1463.252808,596.868347 1463.333374,597.916626 1463.500000,598.500000 
"/>
<path fill="none" opacity="1.000000" stroke="#000000" stroke-linecap="round" stroke-linejoin="round" stroke-width="9.000000"
	d="
M169.500000,670.000000 
	C177.474075,665.213562 184.392059,667.995789 191.000000,673.000000 
"/>
<path fill="none" opacity="1.000000" stroke="#000000" stroke-linecap="round" stroke-linejoin="round" stroke-width="6.000000"
	d="
M485.000000,675.500000 
	C483.788422,674.675293 482.497467,673.494690 481.018768,674.049988 
	C475.192841,676.237915 468.264984,675.457031 463.500000,680.500000 
"/>
<path fill="none" opacity="1.000000" stroke="#000000" stroke-linecap="round" stroke-linejoin="round" stroke-width="6.000000"
	d="
M1522.000000,469.250000 
	C1518.480347,469.908203 1514.808716,470.007080 1511.530884,471.564880 
	C1510.339233,472.131195 1509.691406,472.123840 1508.464355,471.580505 
	C1504.692627,469.910248 1500.586670,469.647003 1496.500000,469.500000 
"/>
<path fill="none" opacity="1.000000" stroke="#000000" stroke-linecap="round" stroke-linejoin="round" stroke-width="3.000000"
	d="
M883.000000,706.000000 
	C877.815125,705.040039 874.011230,708.069519 870.000000,710.500000 
"/>
<path fill="none" opacity="1.000000" stroke="#000000" stroke-linecap="round" stroke-linejoin="round" stroke-width="5.000000"
	d="
M1803.000000,704.500000 
	C1797.566895,703.307190 1793.462646,705.569702 1790.000000,709.500000 
"/>
<path fill="none" opacity="1.000000" stroke="#000000" stroke-linecap="round" stroke-linejoin="round" stroke-width="6.000000"
	d="
M1338.500000,474.000000 
	C1335.294556,470.381348 1330.934082,469.842316 1326.500000,469.500000 
"/>
<path fill="none" opacity="1.000000" stroke="#000000" stroke-linecap="round" stroke-linejoin="round" stroke-width="8.000000"
	d="
M1148.500000,697.500000 
	C1148.682983,698.463257 1148.425293,699.346313 1147.739380,699.988708 
	C1141.621948,705.718323 1143.545654,713.480225 1142.485229,720.497803 
	C1141.180664,729.131470 1141.833008,737.987122 1139.500000,746.500000 
"/>
<path fill="none" opacity="1.000000" stroke="#000000" stroke-linecap="round" stroke-linejoin="round" stroke-width="7.000000"
	d="
M1736.500000,701.500000 
	C1732.500000,701.666687 1728.495361,702.028931 1724.501587,701.932983 
	C1721.719727,701.866150 1720.480957,703.353760 1719.500000,705.500000 
"/>
<path fill="none" opacity="1.000000" stroke="#000000" stroke-linecap="round" stroke-linejoin="round" stroke-width="5.000000"
	d="
M1516.500000,703.500000 
	C1511.320190,700.574768 1507.152832,704.766785 1502.514771,705.583801 
	C1501.196533,705.815979 1499.943970,706.609131 1498.500000,706.500000 
"/>
<path fill="none" opacity="1.000000" stroke="#000000" stroke-linecap="round" stroke-linejoin="round" stroke-width="3.000000"
	d="
M1110.500000,705.500000 
	C1105.291260,704.890686 1101.459473,707.861267 1097.500000,710.500000 
"/>
<path fill="none" opacity="1.000000" stroke="#000000" stroke-linecap="round" stroke-linejoin="round" stroke-width="6.000000"
	d="
M1236.500000,666.500000 
	C1235.519897,670.078735 1233.647339,672.556091 1229.499878,672.520569 
	C1226.633789,672.496094 1224.450073,674.375122 1222.000000,675.500000 
"/>
<path fill="none" opacity="1.000000" stroke="#000000" stroke-linecap="round" stroke-linejoin="round" stroke-width="8.000000"
	d="
M1560.500000,735.000000 
	C1556.718750,736.219788 1552.196411,735.660400 1549.515869,739.511047 
	C1548.989136,740.267761 1548.666748,741.166687 1548.250000,742.000000 
"/>
<path fill="none" opacity="1.000000" stroke="#000000" stroke-linecap="round" stroke-linejoin="round" stroke-width="6.000000"
	d="
M1688.500000,666.500000 
	C1688.349365,667.752441 1688.636475,668.691223 1686.880981,669.722839 
	C1684.767578,670.964661 1682.528564,673.062561 1682.000000,676.000000 
"/>
<path fill="none" opacity="1.000000" stroke="#000000" stroke-linecap="round" stroke-linejoin="round" stroke-width="2.000000"
	d="
M358.500000,709.500000 
	C360.500000,710.452881 362.500000,709.964722 364.500000,709.500000 
"/>
<path fill="none" opacity="1.000000" stroke="#000000" stroke-linecap="round" stroke-linejoin="round" stroke-width="2.000000"
	d="
M1229.500000,714.500000 
	C1228.600830,717.085449 1226.389893,716.391357 1224.500000,716.500000 
"/>
</svg>